<svg xmlns="http://www.w3.org/2000/svg" xmlns:svg="http://www.w3.org/2000/svg" id="svg477" style="clip-rule:evenodd;fill-rule:evenodd;stroke-linejoin:round;stroke-miterlimit:2" width="450.787" height="791" version="1.1" viewBox="0 0 450.787 791" xml:space="preserve"><metadata id="metadata481"/><g id="g443" transform="translate(-1702.9999,-201.99972)"><g id="Artboard1" transform="matrix(0.799653,0,0,0.799832,823.673,-445.881)"><g id="g440"><rect id="rect400" style="fill:none" width="1189" height="1189" x="787" y="710"/><g id="g404" transform="matrix(1.25054,0,0,1.25026,90.7433,-577.343)"><path id="path402" style="fill:url(#_Linear1)" d="m 852.157,1625.66 h 388.003 v 183 c 0,50.5 -86.93,91.5 -194,91.5 -107.074,0 -194.003,-41 -194.003,-91.5 z"/></g><g id="g408" transform="matrix(1.25054,0,0,1.25026,711.209,454.321)"><path id="path406" style="fill:url(#_Linear2)" d="M 651.316,722.482 C 706.899,738.571 744,767.508 744,800.5 744,851 657.072,892 550,892 491.625,892 439.237,879.813 403.684,860.518 433.178,869.072 467.878,874 505,874 c 107.072,0 194,-41 194,-91.5 0,-22.968 -17.981,-43.97 -47.684,-60.018 z"/></g><g id="g412" transform="matrix(1.25054,0,0,1.25026,654.935,431.817)"><path id="path410" style="fill:#0057e2" d="M 448.684,878.518 C 418.981,862.47 401,841.468 401,818.5 401,768 487.928,727 595,727 c 37.122,0 71.822,4.928 101.316,13.482 C 726.019,756.53 744,777.532 744,800.5 744,851 657.072,892 550,892 c -37.122,0 -71.822,-4.928 -101.316,-13.482 z"/></g><g id="g416" transform="matrix(1.25054,0,0,1.25026,90.7433,-577.343)"><path id="path414" style="fill:url(#_Linear3)" d="m 824.157,1409.66 h 388.003 v 183 c 0,50.5 -86.93,91.5 -194,91.5 -107.074,0 -194.003,-41 -194.003,-91.5 z"/></g><g id="g420" transform="matrix(1.25054,0,0,1.25026,676.194,184.264)"><ellipse id="ellipse418" style="fill:url(#_Linear4)" cx="550" cy="800.5" rx="194" ry="91.5"/></g><g id="g424" transform="matrix(1.25054,0,0,1.25026,696.203,165.511)"><ellipse id="ellipse422" style="fill:#a90049" cx="550" cy="800.5" rx="194" ry="91.5"/></g><g id="g428" transform="matrix(1.25054,0,0,1.25026,90.7433,-577.343)"><path id="path426" style="fill:url(#_Linear5)" d="m 852.157,1201.66 h 388.003 v 183 c 0,50.5 -86.93,91.5 -194,91.5 -107.074,0 -194.003,-41 -194.003,-91.5 z"/></g><g id="g432" transform="matrix(1.25054,0,0,1.25026,711.209,-75.7902)"><ellipse id="ellipse430" style="fill:url(#_Linear6)" cx="550" cy="800.5" rx="194" ry="91.5"/></g></g></g></g><defs id="defs475"><linearGradient id="_Linear1" x1="0" x2="1" y1="0" y2="0" gradientTransform="matrix(-388,0,0,-388,1240.16,1699.16)" gradientUnits="userSpaceOnUse"><stop id="stop445" style="stop-color:#3a86ff;stop-opacity:1" offset="0"/><stop id="stop447" style="stop-color:#003e9f;stop-opacity:1" offset="1"/></linearGradient><linearGradient id="_Linear2" x1="0" x2="1" y1="0" y2="0" gradientTransform="matrix(-208,100.343,-100.343,-208,744,791.5)" gradientUnits="userSpaceOnUse"><stop id="stop450" style="stop-color:#6fa6ff;stop-opacity:1" offset="0"/><stop id="stop452" style="stop-color:#005ef5;stop-opacity:1" offset="1"/></linearGradient><linearGradient id="_Linear3" x1="0" x2="1" y1="0" y2="0" gradientTransform="matrix(-388,0,0,-388,1212.16,1534.16)" gradientUnits="userSpaceOnUse"><stop id="stop455" style="stop-color:#ff006e;stop-opacity:1" offset="0"/><stop id="stop457" style="stop-color:#ba0050;stop-opacity:1" offset="1"/></linearGradient><linearGradient id="_Linear4" x1="0" x2="1" y1="0" y2="0" gradientTransform="matrix(-255,125.75,-125.75,-255,661.5,729.75)" gradientUnits="userSpaceOnUse"><stop id="stop460" style="stop-color:#d6005c;stop-opacity:1" offset="0"/><stop id="stop462" style="stop-color:#dd005f;stop-opacity:1" offset="1"/></linearGradient><linearGradient id="_Linear5" x1="0" x2="1" y1="0" y2="0" gradientTransform="matrix(-388,0,0,-388,1240.16,1303.16)" gradientUnits="userSpaceOnUse"><stop id="stop465" style="stop-color:#ffbe0b;stop-opacity:1" offset="0"/><stop id="stop467" style="stop-color:#cc9500;stop-opacity:1" offset="1"/></linearGradient><linearGradient id="_Linear6" x1="0" x2="1" y1="0" y2="0" gradientTransform="matrix(-270,121,-121,-270,662.843,725.843)" gradientUnits="userSpaceOnUse"><stop id="stop470" style="stop-color:#ffd666;stop-opacity:1" offset="0"/><stop id="stop472" style="stop-color:#ffbb01;stop-opacity:1" offset="1"/></linearGradient></defs></svg>